<svg id="图层_1" data-name="图层 1" xmlns="http://www.w3.org/2000/svg" viewBox="0 0 507.23 363.99"><defs><style>.cls-1{fill:#eb6fbd;}.cls-2{fill:#485cc7;}.cls-3{fill:#fff;stroke-width:16.42px;}.cls-3,.cls-5{stroke:#10002c;stroke-miterlimit:10;}.cls-4{fill:#10002c;}.cls-5{fill:#a0f7f0;stroke-width:8.21px;}</style></defs><path class="cls-1" d="M29.39,153.47c1.94-60.74,54.81-49.78,97.45-37.53,79.25,21.3,184.93,99.73,116,185.85,80.47,90.57-36.14,163.64-122.27,168.46C48,474.23,89,368.91,104.74,331.34,47.91,293.53,29.61,218,29.39,153.47Z" transform="translate(-29.39 -106.36)"/><path class="cls-2" d="M536.61,153.47c-1.94-60.74-54.81-49.78-97.45-37.53-79.25,21.3-184.93,99.73-116,185.85-80.47,90.57,36.14,163.64,122.27,168.46,72.53,4,31.58-101.34,15.82-138.91C518.09,293.53,536.39,218,536.61,153.47Z" transform="translate(-29.39 -106.36)"/><circle class="cls-3" cx="236.74" cy="180.67" r="47.43"/><circle class="cls-3" cx="329.21" cy="203.33" r="47.43"/><circle class="cls-4" cx="315.42" cy="185.16" r="23.87"/><circle class="cls-4" cx="222.95" cy="162.49" r="23.87"/><path class="cls-4" d="M357.86,360.67a35.1,35.1,0,0,0,19.54,31.59,51.73,51.73,0,0,0,22.08,4.24,5.13,5.13,0,0,0,0-10.26c-1.71,0-3.42,0-5.12-.14-.79-.06-1.58-.13-2.37-.22l-.49-.06c-.58-.06.58.08.55.07a7.51,7.51,0,0,0-1.26-.19,39.55,39.55,0,0,1-7.77-2.12c-.15-.06-.32-.14-.48-.19s1.11.5.62.26l-.81-.36c-.52-.25-1-.5-1.55-.78A31.11,31.11,0,0,1,378,380.8l-.64-.46c-.75-.54-.13-.18.24.2-.37-.38-.84-.69-1.24-1a28.6,28.6,0,0,1-2.07-2.05c-.29-.32-.57-.65-.85-1s-.69-.89-.09-.1,0,0-.12-.17c-.51-.71-1-1.45-1.44-2.2s-.82-1.45-1.18-2.21c-.16-.33-.31-.68-.47-1-.29-.63.55,1.36.22.53l-.24-.62a32.58,32.58,0,0,1-1.26-4.08q-.22-.92-.39-1.83c-.05-.28-.1-.56-.14-.84l-.06-.35c-.14-.89.13,1,.11.81a33.21,33.21,0,0,1-.24-3.73,5.17,5.17,0,0,0-5.13-5.13,5.24,5.24,0,0,0-5.13,5.13Z" transform="translate(-29.39 -106.36)"/><circle class="cls-5" cx="380.22" cy="281.61" r="23.5"/><path class="cls-4" d="M164.45,252l23.77-3.87,14.48,89-23.22,3.78-7.23-44.42-11,47.38-16.63,2.71L119.24,305l7.23,44.42-23.22,3.78-14.47-89,23.77-3.87,36.19,59.07Z" transform="translate(-29.39 -106.36)"/><path class="cls-4" d="M441.18,248.94l13.34,34.43,23.82-28.21,27.27,4.55-42.82,49.65L456.16,349l-24.78-4.15,6.69-40L413.9,244.38Z" transform="translate(-29.39 -106.36)"/></svg>